<svg xmlns="http://www.w3.org/2000/svg" xmlns:xlink="http://www.w3.org/1999/xlink" id="svg" width="400" height="80.45151359671627" viewBox="0, 0, 400,80.45151359671627"><g id="svgg"><path id="path0" d="M64.864 0.228 C 62.559 0.929,60.934 4.578,62.010 6.632 C 63.723 9.900,66.785 10.455,69.919 8.065 L 70.667 7.494 70.523 9.398 C 70.189 13.818,67.732 16.546,62.801 17.971 L 60.852 18.535 37.866 18.685 C 11.040 18.859,11.635 18.805,7.632 21.462 C -1.853 27.760,-2.571 43.941,6.513 46.697 C 13.913 48.943,17.840 38.685,10.803 35.489 C 9.257 34.787,5.131 35.417,5.131 36.354 C 5.131 36.452,5.032 36.532,4.912 36.532 C 4.791 36.532,4.376 36.773,3.988 37.069 L 3.284 37.606 3.284 35.746 C 3.284 27.907,9.573 23.453,20.774 23.360 C 25.396 23.322,26.667 23.981,27.715 26.962 C 28.275 28.556,28.347 68.523,27.794 71.434 C 27.151 74.824,24.549 76.552,20.086 76.552 L 19.497 76.552 19.497 78.091 L 19.497 79.631 32.222 79.631 L 44.946 79.631 44.946 78.133 L 44.946 76.635 43.003 76.390 C 38.778 75.856,36.957 74.372,36.653 71.216 C 36.466 69.281,36.521 25.396,36.711 24.463 C 36.810 23.978,37.103 23.354,37.363 23.078 L 37.835 22.576 47.599 22.572 C 62.482 22.567,64.160 22.310,68.058 19.438 C 73.236 15.622,74.758 6.735,71.002 2.248 C 69.573 0.540,66.818 -0.366,64.864 0.228 M191.320 25.192 L 191.380 26.783 192.612 26.910 C 194.305 27.085,196.068 27.789,196.410 28.427 C 196.560 28.708,196.759 28.938,196.851 28.938 C 196.944 28.938,197.079 29.309,197.151 29.763 C 197.224 30.217,197.363 30.638,197.462 30.699 C 197.560 30.760,197.640 31.432,197.640 32.193 C 197.640 32.954,197.738 33.674,197.858 33.794 C 198.009 33.946,198.038 37.965,197.953 47.021 C 197.886 54.177,197.826 60.816,197.821 61.775 C 197.792 66.714,197.406 73.549,197.127 74.090 C 196.159 75.961,195.183 76.522,192.604 76.692 C 191.528 76.762,190.611 76.878,190.567 76.950 C 190.431 77.171,190.358 79.805,190.484 79.932 C 190.550 79.998,194.671 80.109,199.641 80.179 L 208.677 80.306 208.801 79.712 C 209.149 78.055,208.929 77.185,208.132 77.062 C 204.619 76.519,203.624 75.898,203.039 73.884 C 202.475 71.940,202.383 36.116,202.943 36.123 C 203.018 36.124,203.287 36.470,203.542 36.892 C 204.260 38.080,204.498 38.445,204.720 38.695 C 204.833 38.822,205.110 39.185,205.336 39.501 C 205.562 39.817,206.047 40.480,206.414 40.974 C 206.780 41.467,207.081 41.963,207.081 42.075 C 207.081 42.187,207.167 42.278,207.272 42.278 C 207.377 42.278,207.525 42.473,207.601 42.710 C 207.676 42.948,207.890 43.326,208.076 43.549 C 208.262 43.772,208.576 44.146,208.774 44.379 C 208.971 44.613,209.133 44.894,209.133 45.005 C 209.133 45.116,209.341 45.417,209.595 45.673 C 210.144 46.228,210.228 46.338,211.288 47.903 C 211.739 48.570,212.478 49.644,212.930 50.291 C 213.381 50.937,214.767 52.919,216.008 54.696 C 217.250 56.473,218.589 58.401,218.984 58.981 C 220.096 60.614,221.727 62.893,221.865 63.007 C 221.934 63.063,222.051 63.248,222.125 63.417 C 222.199 63.586,222.952 64.695,223.799 65.880 C 224.645 67.065,225.846 68.774,226.468 69.677 C 227.090 70.580,228.022 71.919,228.539 72.653 C 229.597 74.153,231.553 76.970,232.944 78.997 L 233.872 80.349 236.068 80.407 L 238.263 80.465 238.321 56.395 C 238.386 29.383,238.335 30.312,239.838 28.557 C 240.666 27.590,242.603 26.886,244.437 26.886 L 245.664 26.886 245.664 25.242 L 245.664 23.598 236.480 23.651 L 227.296 23.704 227.296 25.244 L 227.296 26.783 228.835 26.913 C 233.936 27.343,234.011 27.682,233.923 50.165 L 233.864 65.544 232.735 63.944 C 232.114 63.064,231.467 62.126,231.298 61.859 C 231.129 61.593,230.491 60.657,229.881 59.780 C 229.271 58.902,228.169 57.306,227.431 56.234 C 224.663 52.208,223.991 51.232,223.191 50.074 C 221.694 47.906,219.886 45.272,218.968 43.920 C 218.469 43.186,218.015 42.540,217.958 42.483 C 217.901 42.427,217.485 41.834,217.034 41.166 C 216.583 40.498,215.822 39.389,215.345 38.703 C 214.867 38.017,214.228 37.086,213.926 36.634 C 213.623 36.183,212.559 34.643,211.562 33.213 C 210.565 31.782,209.749 30.481,209.749 30.320 C 209.749 30.159,209.517 29.760,209.234 29.432 C 208.951 29.104,208.668 28.674,208.605 28.476 C 208.541 28.279,208.403 28.117,208.298 28.117 C 208.193 28.117,208.107 27.978,208.107 27.809 C 208.107 27.640,208.029 27.501,207.935 27.501 C 207.840 27.501,207.587 27.140,207.372 26.699 C 207.157 26.257,206.912 25.940,206.826 25.993 C 206.740 26.046,206.670 25.921,206.670 25.716 C 206.670 25.510,206.485 25.227,206.260 25.086 C 206.034 24.945,205.849 24.692,205.849 24.524 C 205.849 24.355,205.751 24.218,205.632 24.218 C 205.512 24.218,205.466 24.135,205.528 24.034 C 205.761 23.656,204.828 23.602,198.127 23.602 L 191.260 23.602 191.320 25.192 M318.317 33.263 C 318.317 34.257,315.973 37.863,314.212 39.577 C 313.376 40.392,310.319 42.689,310.071 42.689 C 309.979 42.689,309.903 43.427,309.903 44.330 L 309.903 45.972 311.852 45.972 L 313.802 45.972 313.802 59.261 C 313.802 73.454,313.862 74.448,314.819 76.347 C 317.607 81.876,328.291 81.813,331.432 76.249 C 332.219 74.853,332.219 74.774,331.419 74.060 C 330.610 73.337,330.017 73.133,329.802 73.503 C 327.725 77.066,323.022 77.542,321.591 74.335 C 320.897 72.780,320.787 70.549,320.784 57.927 L 320.780 45.972 325.200 45.972 L 329.620 45.972 329.561 44.074 L 329.502 42.175 325.145 42.120 L 320.788 42.065 320.733 37.605 L 320.677 33.145 319.497 33.084 C 318.696 33.042,318.317 33.099,318.317 33.263 M62.904 40.631 C 60.893 40.994,60.366 41.171,58.081 42.252 C 56.966 42.780,54.834 44.283,53.909 45.195 C 53.183 45.910,51.514 47.947,51.514 48.117 C 51.514 48.200,51.339 48.489,51.126 48.760 C 46.897 54.137,47.059 66.213,51.456 73.230 C 52.224 74.456,54.650 76.875,55.896 77.658 C 63.096 82.181,71.909 81.194,77.847 75.198 C 80.118 72.904,80.138 72.839,78.903 71.621 C 77.622 70.357,77.715 70.346,76.136 71.948 C 72.897 75.235,71.221 76.028,67.522 76.023 C 61.502 76.013,57.710 72.088,56.334 64.443 C 55.971 62.423,55.831 58.116,56.103 57.316 L 56.259 56.859 67.952 56.803 C 78.073 56.755,79.674 56.706,79.857 56.439 C 80.872 54.963,78.816 45.732,77.351 45.186 C 77.250 45.148,77.168 45.009,77.169 44.878 C 77.170 44.746,76.639 44.150,75.989 43.554 C 72.943 40.758,68.143 39.686,62.904 40.631 M104.874 40.611 C 101.423 41.608,98.491 44.196,96.334 48.149 C 95.399 49.863,95.228 49.757,95.228 47.458 C 95.228 46.603,94.620 41.226,94.508 41.089 C 94.461 41.032,93.490 41.246,90.097 42.062 C 89.251 42.266,87.635 42.642,86.506 42.899 C 85.377 43.155,84.038 43.470,83.530 43.598 L 82.606 43.831 82.606 45.261 L 82.606 46.691 84.249 46.813 C 88.286 47.114,88.353 47.362,88.353 62.083 C 88.353 74.097,88.326 74.376,87.042 75.606 C 86.416 76.206,84.726 76.751,83.479 76.755 L 82.709 76.757 82.709 78.194 L 82.709 79.631 91.739 79.631 L 100.770 79.631 100.770 78.240 L 100.770 76.850 99.201 76.600 C 95.574 76.023,95.077 74.647,95.295 65.777 C 95.519 56.632,97.145 50.970,100.462 47.778 C 101.867 46.427,102.409 46.389,104.522 47.494 C 108.680 49.669,111.750 48.421,111.750 44.556 C 111.750 41.088,108.895 39.450,104.874 40.611 M136.788 40.540 C 133.451 41.366,129.881 44.480,127.914 48.277 C 127.254 49.552,127.040 49.595,127.039 48.452 C 127.039 47.637,126.238 41.203,126.123 41.088 C 126.083 41.048,125.511 41.154,124.852 41.325 C 124.192 41.495,122.776 41.834,121.703 42.078 C 120.631 42.322,119.061 42.695,118.214 42.906 C 117.368 43.118,116.140 43.402,115.487 43.538 L 114.298 43.784 114.358 45.237 L 114.418 46.691 115.136 46.742 C 120.058 47.093,119.959 46.779,119.959 62.083 C 119.959 76.291,119.959 76.290,115.654 76.692 L 114.315 76.817 114.315 78.224 L 114.315 79.631 123.345 79.631 L 132.376 79.631 132.376 78.239 L 132.376 76.848 130.990 76.626 C 127.198 76.018,127.139 75.869,127.153 67.009 C 127.172 55.633,129.149 49.177,133.285 46.984 L 134.225 46.485 136.124 47.460 C 140.337 49.622,143.458 48.427,143.458 44.652 C 143.458 41.190,140.794 39.547,136.788 40.540 M156.183 40.322 C 156.013 40.364,154.997 40.511,153.925 40.648 C 149.581 41.203,146.347 43.263,145.528 45.995 C 143.714 52.050,150.342 54.056,152.467 48.095 C 153.847 44.224,154.603 43.509,157.318 43.509 C 161.808 43.509,163.782 46.050,164.114 52.259 L 164.248 54.765 162.421 55.627 C 160.580 56.496,157.005 58.196,154.541 59.374 C 146.859 63.045,143.731 66.668,143.787 71.832 C 143.816 74.529,145.205 77.770,146.588 78.366 C 146.677 78.404,146.883 78.570,147.047 78.734 C 148.468 80.154,153.796 80.772,156.596 79.841 C 159.756 78.789,163.345 75.763,164.271 73.371 C 164.398 73.043,164.541 73.269,164.984 74.500 C 165.867 76.949,166.942 78.386,168.901 79.733 L 169.796 80.349 173.199 80.349 C 180.110 80.349,183.889 75.909,182.372 69.569 C 181.402 65.516,177.348 63.511,174.558 65.706 C 170.718 68.727,175.582 73.389,179.685 70.620 L 180.611 69.995 180.496 70.554 C 179.221 76.771,173.268 79.463,171.544 74.602 C 171.122 73.412,171.104 72.972,171.019 61.262 C 170.901 45.031,170.524 43.538,166.034 41.527 C 164.128 40.674,157.845 39.905,156.183 40.322 M257.978 40.620 C 248.908 42.724,243.571 49.817,243.529 59.826 C 243.430 83.270,273.199 88.134,279.955 65.777 C 280.700 63.314,280.701 56.497,279.957 54.182 C 277.940 47.901,274.335 43.912,268.383 41.375 C 265.767 40.261,261.015 39.916,257.978 40.620 M292.766 40.359 C 287.189 41.520,284.133 45.515,284.154 51.616 C 284.169 56.067,285.956 58.750,291.375 62.461 C 292.140 62.984,293.442 63.875,294.268 64.441 C 300.129 68.450,300.815 69.301,300.609 72.307 C 300.385 75.570,298.365 77.123,294.613 76.917 C 290.867 76.712,288.038 73.801,286.428 68.494 L 285.977 67.009 285.010 66.946 L 284.043 66.884 284.043 73.269 L 284.043 79.654 284.915 79.591 C 285.728 79.532,285.826 79.458,286.348 78.502 C 286.856 77.571,287.245 77.332,287.530 77.773 C 289.124 80.240,297.221 81.172,301.178 79.343 C 305.570 77.314,308.303 71.243,306.870 66.701 C 305.640 62.801,303.613 60.713,296.341 55.854 C 291.304 52.489,289.990 50.943,289.999 48.391 C 290.009 45.518,291.828 43.715,294.715 43.715 C 297.673 43.715,299.820 45.908,301.648 50.795 L 302.032 51.821 303.042 51.821 L 304.053 51.821 304.108 46.434 L 304.163 41.047 303.273 41.047 C 302.500 41.047,302.307 41.142,301.805 41.772 C 301.293 42.414,301.189 42.463,300.896 42.202 C 299.596 41.049,294.739 39.948,292.766 40.359 M354.336 40.601 C 350.802 41.669,347.677 44.444,345.654 48.312 C 345.096 49.379,345.008 49.465,344.914 49.030 C 344.688 47.987,344.177 43.339,344.177 42.333 C 344.177 40.833,344.551 40.853,339.456 42.081 C 335.962 42.924,334.366 43.297,333.248 43.532 L 332.068 43.780 332.068 45.261 L 332.068 46.742 333.778 46.832 C 337.605 47.032,337.812 47.841,337.814 62.530 C 337.815 75.575,337.585 76.333,333.510 76.702 L 332.273 76.814 332.273 78.222 L 332.273 79.631 341.201 79.631 L 350.128 79.631 350.128 78.222 L 350.128 76.814 349.047 76.687 C 346.995 76.446,346.078 76.000,345.456 74.941 L 344.895 73.987 344.905 67.009 C 344.920 57.239,345.883 52.825,348.843 48.948 C 350.677 46.546,351.832 46.235,354.049 47.548 C 357.566 49.632,361.416 48.123,361.416 44.661 C 361.416 43.106,360.089 40.841,359.178 40.841 C 358.987 40.841,358.734 40.745,358.616 40.627 C 358.206 40.218,355.655 40.202,354.336 40.601 M373.114 40.353 C 369.866 40.753,366.139 41.757,365.965 42.278 C 365.928 42.391,365.781 42.483,365.640 42.483 C 364.442 42.483,362.599 45.627,362.571 47.717 C 362.498 53.229,368.879 52.963,369.955 47.409 C 370.459 44.809,372.029 43.484,374.606 43.484 C 379.090 43.484,381.438 46.702,381.280 52.631 C 381.212 55.155,381.494 54.807,378.348 56.255 C 376.025 57.323,368.839 60.865,368.295 61.210 C 362.661 64.778,360.837 67.556,361.056 72.242 C 361.516 82.122,375.247 83.412,381.072 74.123 L 381.888 72.823 382.035 73.808 C 382.677 78.085,385.884 80.531,390.703 80.419 C 398.237 80.245,402.385 73.439,398.695 67.306 C 396.917 64.352,392.182 64.061,390.871 66.825 C 389.160 70.431,393.926 73.160,397.169 70.430 L 397.811 69.890 397.673 70.896 C 397.079 75.231,391.925 78.685,389.649 76.272 C 388.303 74.845,388.232 74.107,388.091 60.133 C 387.946 45.762,387.929 45.636,385.777 43.304 C 383.745 41.103,377.961 39.755,373.114 40.353 M68.388 44.741 C 70.819 45.699,72.242 47.825,72.306 50.595 C 72.361 53.034,73.043 52.838,64.249 52.906 L 56.687 52.965 57.254 51.162 C 59.084 45.344,63.479 42.809,68.388 44.741 M264.863 44.634 C 267.593 45.662,269.430 47.457,270.851 50.487 C 273.193 55.479,273.407 62.992,271.363 68.445 C 268.473 76.156,260.698 78.525,255.516 73.274 C 250.121 67.808,249.720 53.980,254.774 47.704 C 257.376 44.474,261.280 43.286,264.863 44.634 M164.120 62.237 C 163.931 67.943,162.975 70.895,160.496 73.437 C 156.238 77.801,149.865 74.882,151.055 69.112 C 151.706 65.954,154.807 62.922,159.979 60.387 C 163.515 58.654,163.863 58.492,164.051 58.492 C 164.170 58.492,164.197 59.933,164.120 62.237 M380.904 67.075 C 379.707 72.305,376.778 75.526,373.217 75.526 C 367.377 75.526,366.338 68.433,371.530 64.009 C 373.420 62.397,379.478 58.925,380.866 58.657 C 381.464 58.541,381.491 64.512,380.904 67.075 " stroke="none" fill="#000000" fill-rule="evenodd"></path></g></svg>